<svg id="Capa_1" enable-background="new 0 0 511.996 511.996" height="512" viewBox="0 0 511.996 511.996" width="512" xmlns="http://www.w3.org/2000/svg"><g><path d="m421.925 367.982c40.3-20.057 76.09-54.177 89.621-108.351.601-2.388.601-4.878 0-7.266-13.579-54.307-49.499-88.464-89.918-108.501-36.599 24.28-60.628 65.402-60.628 112.134 0 46.249 24.386 87.55 60.925 111.984zm-15.925-156.984c8.284 0 15 6.716 15 15s-6.716 15-15 15-15-6.716-15-15 6.716-15 15-15z"/><path d="m15 390.998c44.224 0 84.921-27.993 99.789-69.668 6.709-18.765 11.719-20.376 11.763-20.391 4.966-1.509 22.368 12.334 34.966 22.441 33.618 26.982 84.419 67.749 161.748 67.749 21.092 0 43.918-3.49 66.328-10.259-35.612-30.543-58.594-75.375-58.594-124.872 0-49.948 22.515-94.689 58-125.072-22.225-6.649-44.839-10.074-65.75-10.074-78.354 0-128.965 41.279-162.451 68.584-11.558 9.419-29.18 23.54-34.014 22.324-.044-.015-5.098-1.626-12.041-21.108-14.867-41.661-55.55-69.654-99.744-69.654-8.291 0-15 6.709-15 15v60c0 23.203 12.715 43.638 26.104 60-13.389 16.362-26.104 36.797-26.104 60v60c0 8.291 6.709 15 15 15z"/><path d="m204.146 122.478c31.328-17.399 70.4-31.626 119.105-31.626 5.59 0 11.307.229 17.087.615-25.223-19.413-56.299-30.469-89.202-30.469h-55.136c-4.819 0-9.346 2.314-12.173 6.226-2.813 3.911-3.589 8.95-2.051 13.521 5.076 15.219 12.869 29.139 22.37 41.733z"/><path d="m251.137 450.998c32.919 0 64.01-11.061 89.236-30.485-5.786.386-11.51.617-17.108.617-48.532 0-87.651-14.304-119.052-31.697-9.534 12.612-17.351 26.563-22.438 41.819-1.538 4.57-.762 9.609 2.051 13.521 2.827 3.911 7.354 6.226 12.173 6.226h55.138z"/></g></svg>